<?xml version="1.0" standalone="no"?>
<!DOCTYPE svg PUBLIC "-//W3C//DTD SVG 20010904//EN"
 "http://www.w3.org/TR/2001/REC-SVG-20010904/DTD/svg10.dtd">
<svg version="1.0" xmlns="http://www.w3.org/2000/svg"
 width="700.000000pt" height="700.000000pt" viewBox="0 0 700.000000 700.000000"
 preserveAspectRatio="xMidYMid meet">
<metadata>
Created by potrace 1.14, written by Peter Selinger 2001-2017
</metadata>
<g transform="translate(0.000000,700.000000) scale(0.100000,-0.100000)"
fill="#000000" stroke="none">
<path d="M3320 6994 c-772 -53 -1418 -298 -2000 -758 -151 -119 -435 -401
-549 -546 -429 -541 -676 -1146 -752 -1840 -16 -147 -16 -541 -1 -690 39 -357
132 -718 267 -1034 448 -1048 1402 -1824 2515 -2046 266 -53 380 -64 685 -64
295 -1 396 7 635 50 350 64 641 162 970 330 423 215 800 518 1102 885 633 770
907 1765 758 2752 -236 1558 -1495 2766 -3065 2942 -131 15 -463 26 -565 19z
m445 -294 c1367 -116 2511 -1091 2844 -2425 71 -282 96 -526 88 -853 -8 -358
-50 -600 -157 -924 -122 -365 -301 -697 -540 -998 -107 -135 -365 -392 -503
-502 -456 -362 -980 -587 -1572 -675 -94 -14 -186 -18 -425 -18 -271 0 -322 3
-460 24 -1051 160 -1936 798 -2408 1736 -166 330 -266 656 -318 1040 -25 181
-25 617 -1 795 88 637 327 1185 726 1663 541 647 1325 1057 2176 1136 130 12
411 12 550 1z"/>
<path d="M3260 6424 c-1159 -104 -2130 -851 -2522 -1939 -191 -531 -220 -1149
-78 -1705 188 -739 670 -1389 1325 -1785 145 -88 505 -257 505 -238 0 3 -79
379 -176 837 -355 1685 -474 2272 -495 2453 -15 121 -6 392 16 488 74 331 247
563 519 695 125 61 227 95 370 125 l110 22 -89 21 c-169 38 -262 47 -517 47
-279 0 -268 -3 -228 74 31 61 66 83 184 115 124 34 129 27 -58 103 -143 58
-143 56 -21 84 41 10 128 14 280 14 189 -1 234 -4 322 -23 300 -65 577 -203
743 -370 73 -74 77 -76 160 -98 178 -45 302 -115 408 -229 218 -233 423 -670
487 -1040 20 -114 24 -345 7 -415 -6 -24 -9 -46 -7 -48 11 -11 680 175 795
221 66 26 87 30 175 30 194 0 345 -61 345 -138 0 -89 -182 -194 -635 -368
-222 -85 -540 -191 -638 -212 -88 -19 -255 -17 -419 6 -91 12 -100 12 -145 -7
-61 -25 -101 -80 -109 -149 -10 -94 58 -178 183 -225 121 -46 186 -54 408 -55
238 0 287 7 640 85 121 27 247 51 280 54 107 10 159 -27 141 -100 -26 -102
-288 -237 -597 -306 -135 -30 -384 -32 -524 -5 -270 54 -678 177 -815 247 -53
27 -56 23 -66 -79 -20 -212 22 -481 123 -791 26 -80 48 -149 48 -154 0 -4 -33
-17 -74 -27 -40 -10 -93 -29 -116 -42 l-42 -24 -65 33 c-117 59 -347 154 -435
179 -92 27 -172 32 -191 13 -9 -9 -12 -73 -12 -228 0 -343 26 -609 70 -708
l20 -45 50 6 c62 7 199 65 385 161 138 72 140 73 170 57 45 -23 246 -19 347 8
91 24 128 45 128 75 0 11 57 -89 126 -222 l126 -244 37 7 c20 4 108 30 196 59
1003 331 1754 1182 1955 2216 65 338 67 774 5 1100 -206 1084 -982 1947 -2040
2269 -262 80 -479 112 -790 116 -132 1 -260 1 -285 -1z m1297 -4490 c-3 -3
-12 -4 -19 -1 -8 3 -5 6 6 6 11 1 17 -2 13 -5z m100 -126 c-3 -8 -6 -5 -6 6
-1 11 2 17 5 13 3 -3 4 -12 1 -19z m-477 -72 c0 -3 -15 -14 -32 -26 l-33 -22
30 26 c31 27 35 29 35 22z m497 -38 c-3 -7 -5 -2 -5 12 0 14 2 19 5 13 2 -7 2
-19 0 -25z m-914 -35 c-7 -2 -21 -2 -30 0 -10 3 -4 5 12 5 17 0 24 -2 18 -5z
m287 -17 c0 -2 -8 -10 -17 -17 -16 -13 -17 -12 -4 4 13 16 21 21 21 13z m637
-33 c-3 -10 -5 -4 -5 12 0 17 2 24 5 18 2 -7 2 -21 0 -30z m-1240 -210 c-2
-27 -3 -5 -3 47 0 52 1 74 3 48 2 -27 2 -69 0 -95z m1250 40 c-2 -21 -4 -6 -4
32 0 39 2 55 4 38 2 -18 2 -50 0 -70z m-1284 63 c-10 -13 -20 -22 -22 -20 -4
4 29 44 36 44 2 0 -4 -11 -14 -24z m1284 -253 c-2 -21 -4 -6 -4 32 0 39 2 55
4 38 2 -18 2 -50 0 -70z m-1310 -75 c-2 -29 -3 -8 -3 47 0 55 1 79 3 53 2 -26
2 -71 0 -100z m60 0 c-3 -8 -6 -5 -6 6 -1 11 2 17 5 13 3 -3 4 -12 1 -19z
m552 -1 c-2 -1 -15 -11 -29 -22 l-25 -20 19 23 c11 12 24 22 29 22 6 0 8 -1 6
-3z m688 -39 c-3 -7 -5 -2 -5 12 0 14 2 19 5 13 2 -7 2 -19 0 -25z m-1184 -37
c-4 -6 -53 41 -53 50 0 4 13 -4 28 -19 15 -15 26 -29 25 -31z m617 29 c8 -5
11 -10 5 -10 -5 0 -17 5 -25 10 -8 5 -10 10 -5 10 6 0 17 -5 25 -10z m-273
-26 c-3 -3 -12 -4 -19 -1 -8 3 -5 6 6 6 11 1 17 -2 13 -5z m-300 -10 c-3 -3
-12 -4 -19 -1 -8 3 -5 6 6 6 11 1 17 -2 13 -5z m246 -1 c-7 -2 -21 -2 -30 0
-10 3 -4 5 12 5 17 0 24 -2 18 -5z m-116 -10 c-20 -2 -52 -2 -70 0 -17 2 0 4
38 4 39 0 53 -2 32 -4z m800 -69 c-3 -3 -12 -4 -19 -1 -8 3 -5 6 6 6 11 1 17
-2 13 -5z m40 -10 c-3 -3 -12 -4 -19 -1 -8 3 -5 6 6 6 11 1 17 -2 13 -5z m96
-11 c-13 -2 -35 -2 -50 0 -16 2 -5 4 22 4 28 0 40 -2 28 -4z"/>
<path d="M3892 4759 c-40 -20 -64 -46 -91 -96 l-12 -23 46 24 c100 54 213 58
326 12 35 -14 65 -24 67 -22 9 10 -77 91 -113 107 -58 27 -167 25 -223 -2z"/>
<path d="M2433 4695 c-72 -20 -122 -47 -160 -87 -40 -42 -53 -76 -53 -141 l0
-52 30 51 c60 106 177 177 301 182 41 2 92 -1 113 -6 32 -9 36 -9 26 3 -41 49
-171 74 -257 50z"/>
<path d="M4042 4279 c-135 -68 -135 -261 0 -330 90 -46 202 -9 249 83 79 156
-93 326 -249 247z m199 -59 c22 -12 26 -59 7 -78 -28 -28 -88 -2 -88 38 0 22
26 50 46 50 9 0 24 -5 35 -10z"/>
<path d="M2555 4181 c-51 -23 -78 -54 -106 -115 -39 -90 -6 -201 79 -261 40
-27 51 -30 122 -30 71 0 82 3 122 30 139 98 120 315 -34 380 -50 20 -134 19
-183 -4z m233 -77 c42 -29 18 -104 -35 -104 -25 0 -63 32 -63 54 0 21 40 66
59 66 9 0 27 -7 39 -16z"/>
</g>
</svg>
