<svg width="158" height="32" viewBox="0 0 158 32" fill="none" xmlns="http://www.w3.org/2000/svg">
<g clip-path="url(#clip0_1_3)">
<path fill-rule="evenodd" clip-rule="evenodd" d="M16 32C24.837 32 32 24.837 32 16C32 7.163 24.837 0 16 0C7.163 0 0 7.163 0 16C0 24.837 7.163 32 16 32Z" fill="#DE5833"/>
<path d="M16.003 2.59C8.595 2.59 2.59 8.597 2.59 16.005C2.59 21.804 6.27 26.743 11.421 28.615C10.576 24.582 8.845 16.511 8.419 14.111C7.939 11.418 8.744 9.171 10.568 8.211C10.626 8.181 10.691 8.153 10.762 8.125C10.786 8.113 10.81 8.099 10.834 8.085C11.402 7.786 12.192 7.561 13.05 7.443C11.837 7.08 10.18 7 9.06 7.115C9.055 6.928 9.228 6.533 9.46 6.427C9.546 6.388 9.642 6.364 9.742 6.347C9.986 6.247 10.298 6.195 10.526 6.107C10.057 5.917 9.312 5.57 9.116 5.55C9.276 5.525 9.395 5.454 9.593 5.417H9.588C11.2517 5.13182 12.9631 5.40205 14.458 6.186C15.221 6.593 15.76 7.031 16.093 7.49C16.963 7.655 17.73 7.97 18.231 8.47C19.77 10.007 21.144 13.516 20.574 15.538C21.596 15.293 23.796 14.738 24.426 14.444C25.093 14.138 27.919 14.596 25.928 15.708C25.066 16.19 22.745 17.076 21.084 17.571C19.425 18.067 18.421 17.096 17.869 17.912C17.432 18.56 17.781 19.448 19.761 19.632C22.438 19.88 25.003 18.428 25.285 19.2C25.568 19.974 22.987 20.933 21.415 20.965C19.842 20.995 16.675 19.925 16.2 19.595L16.195 19.592C15.89 20.926 16.298 22.745 16.925 24.432C17.473 24.349 18.018 24.368 18.079 24.519C18.099 24.57 18.124 24.657 18.151 24.768C18.832 24.271 20.556 23.056 21.006 23.157C21.569 23.285 21.694 27.291 21.194 27.483C20.819 27.623 19.089 26.988 18.234 26.657C18.2144 26.7039 18.1822 26.7444 18.141 26.774C18.1082 26.7956 18.0737 26.8146 18.038 26.831C18.0331 26.8502 18.0275 26.8692 18.021 26.888C18.323 27.478 18.718 28.225 19.144 29.045C25.036 27.633 29.416 22.33 29.416 16.003C29.416 8.596 23.41 2.591 16.002 2.591L16.003 2.59Z" fill="#DE5833"/>
<path d="M16.004 0.00799942C7.17 0.00799942 0.00800323 7.169 0.00800323 16.003C0.00800323 24.133 6.072 30.846 13.924 31.865C15.1172 32.0204 16.3241 32.0415 17.522 31.928C25.644 31.163 31.998 24.325 31.998 16.003C32 7.17 24.838 0.00799942 16.004 0.00799942ZM19.004 30.359C18.035 30.561 17.032 30.666 16.004 30.666C14.514 30.666 13.077 30.444 11.724 30.031C5.714 28.201 1.341 22.612 1.341 16.003C1.341 7.906 7.906 1.34 16.004 1.34C24.101 1.34 30.666 7.905 30.666 16.003C30.666 23.073 25.663 28.974 19.004 30.359V30.359Z" fill="#DE5833"/>
<path d="M8.421 14.11C8.848 16.51 10.578 24.581 11.425 28.613C11.665 28.701 11.911 28.782 12.159 28.857C11.387 25.147 9.465 16.212 9.008 13.66C8.535 11.003 8.995 9.097 10.764 8.125C10.6976 8.1495 10.6328 8.17823 10.57 8.211C8.747 9.171 7.942 11.418 8.421 14.111V14.11ZM9.063 7.115C10.181 7.001 11.837 7.08 13.052 7.442C13.14 7.43 13.228 7.418 13.317 7.409C12.107 6.869 10.672 6.662 9.361 6.795C9.359 6.567 9.524 6.438 9.744 6.348C9.644 6.364 9.55 6.39 9.462 6.427C9.231 6.535 9.057 6.928 9.062 7.115H9.063ZM10.528 6.109C10.5888 6.08671 10.6468 6.05752 10.701 6.022C10.46 5.988 9.862 5.449 9.593 5.417C9.397 5.454 9.278 5.527 9.117 5.55C9.315 5.57 10.059 5.918 10.528 6.109Z" fill="#D5D7D8"/>
<path d="M12.131 14.806C12.3989 14.806 12.6558 14.6996 12.8452 14.5102C13.0346 14.3208 13.141 14.0639 13.141 13.796C13.141 13.5281 13.0346 13.2712 12.8452 13.0818C12.6558 12.8924 12.3989 12.786 12.131 12.786C11.8631 12.786 11.6062 12.8924 11.4168 13.0818C11.2274 13.2712 11.121 13.5281 11.121 13.796C11.121 14.0639 11.2274 14.3208 11.4168 14.5102C11.6062 14.6996 11.8631 14.806 12.131 14.806ZM12.581 13.199C12.6167 13.1968 12.6525 13.2019 12.6861 13.2141C12.7198 13.2262 12.7506 13.2451 12.7766 13.2696C12.8027 13.2941 12.8235 13.3237 12.8377 13.3565C12.8519 13.3893 12.8592 13.4247 12.8592 13.4605C12.8592 13.4963 12.8519 13.5317 12.8377 13.5645C12.8235 13.5973 12.8027 13.6269 12.7766 13.6514C12.7506 13.6759 12.7198 13.6948 12.6861 13.7069C12.6525 13.7191 12.6167 13.7242 12.581 13.722C12.5144 13.7179 12.452 13.6885 12.4063 13.6399C12.3606 13.5914 12.3352 13.5272 12.3352 13.4605C12.3352 13.3938 12.3606 13.3296 12.4063 13.281C12.452 13.2325 12.5144 13.2031 12.581 13.199V13.199Z" fill="#2D4F8E"/>
<path d="M12.582 13.721C12.6177 13.7232 12.6535 13.7181 12.6871 13.7059C12.7208 13.6938 12.7516 13.6749 12.7776 13.6504C12.8037 13.6259 12.8245 13.5963 12.8387 13.5635C12.8529 13.5307 12.8602 13.4953 12.8602 13.4595C12.8602 13.4237 12.8529 13.3883 12.8387 13.3555C12.8245 13.3227 12.8037 13.2931 12.7776 13.2686C12.7516 13.2441 12.7208 13.2252 12.6871 13.2131C12.6535 13.2009 12.6177 13.1958 12.582 13.198C12.5154 13.2021 12.453 13.2315 12.4073 13.28C12.3616 13.3286 12.3362 13.3928 12.3362 13.4595C12.3362 13.5262 12.3616 13.5904 12.4073 13.6389C12.453 13.6875 12.5154 13.7169 12.582 13.721V13.721Z" fill="white"/>
<path d="M18.016 13.196C18.0121 13.3123 18.0315 13.4281 18.0733 13.5367C18.1151 13.6453 18.1783 13.7444 18.2591 13.828C18.34 13.9116 18.4368 13.9782 18.5439 14.0236C18.651 14.069 18.7662 14.0924 18.8825 14.0924C18.9988 14.0924 19.114 14.069 19.2211 14.0236C19.3282 13.9782 19.425 13.9116 19.5059 13.828C19.5867 13.7444 19.6499 13.6453 19.6917 13.5367C19.7335 13.4281 19.753 13.3123 19.749 13.196C19.7414 12.9713 19.6467 12.7583 19.4851 12.6021C19.3234 12.4458 19.1073 12.3584 18.8825 12.3584C18.6577 12.3584 18.4416 12.4458 18.2799 12.6021C18.1183 12.7583 18.0236 12.9713 18.016 13.196V13.196ZM19.268 12.685C19.2987 12.6829 19.3296 12.6872 19.3586 12.6976C19.3876 12.7079 19.4142 12.7241 19.4367 12.7452C19.4592 12.7662 19.4771 12.7917 19.4894 12.8199C19.5017 12.8482 19.508 12.8787 19.508 12.9095C19.508 12.9403 19.5017 12.9708 19.4894 12.9991C19.4771 13.0273 19.4592 13.0528 19.4367 13.0738C19.4142 13.0949 19.3876 13.1111 19.3586 13.1214C19.3296 13.1318 19.2987 13.1361 19.268 13.134C19.2083 13.134 19.1511 13.1103 19.1089 13.0681C19.0667 13.0259 19.043 12.9687 19.043 12.909C19.043 12.8493 19.0667 12.7921 19.1089 12.7499C19.1511 12.7077 19.2083 12.684 19.268 12.684V12.685Z" fill="#2D4F8E"/>
<path d="M19.267 13.132C19.2966 13.132 19.3258 13.1262 19.3531 13.1149C19.3804 13.1036 19.4052 13.087 19.4261 13.0661C19.447 13.0452 19.4636 13.0204 19.4749 12.9931C19.4862 12.9658 19.492 12.9365 19.492 12.907C19.492 12.8775 19.4862 12.8482 19.4749 12.8209C19.4636 12.7936 19.447 12.7688 19.4261 12.7479C19.4052 12.727 19.3804 12.7104 19.3531 12.6991C19.3258 12.6878 19.2966 12.682 19.267 12.682C19.2073 12.682 19.1501 12.7057 19.1079 12.7479C19.0657 12.7901 19.042 12.8473 19.042 12.907C19.042 12.9667 19.0657 13.0239 19.1079 13.0661C19.1501 13.1083 19.2073 13.132 19.267 13.132ZM10.92 10.991C11.659 10.525 12.421 10.871 12.421 10.871C12.421 10.871 11.91 10.2 10.861 10.626C9.81701 11.056 10.209 11.93 10.209 11.93C10.209 11.93 10.181 11.456 10.92 10.991V10.991Z" fill="white"/>
<path d="M10.92 10.991C11.659 10.525 12.421 10.871 12.421 10.871C12.421 10.871 11.91 10.2 10.861 10.626C9.81701 11.056 10.209 11.93 10.209 11.93C10.209 11.93 10.181 11.456 10.92 10.991V10.991Z" fill="url(#paint0_linear_1_3)"/>
<path d="M18.581 10.157C17.467 9.974 17.321 10.89 17.321 10.89C17.321 10.89 17.557 10.506 18.429 10.495C18.856 10.49 19.402 10.802 19.402 10.802C19.3282 10.6358 19.2149 10.4902 19.072 10.3778C18.9291 10.2654 18.7609 10.1896 18.582 10.157H18.581Z" fill="white"/>
<path d="M18.581 10.157C17.467 9.974 17.321 10.89 17.321 10.89C17.321 10.89 17.557 10.506 18.429 10.495C18.856 10.49 19.402 10.802 19.402 10.802C19.3282 10.6358 19.2149 10.4902 19.072 10.3778C18.9291 10.2654 18.7609 10.1896 18.582 10.157H18.581Z" fill="url(#paint1_linear_1_3)"/>
<path d="M21.415 20.965C22.988 20.933 25.568 19.974 25.285 19.2C25.003 18.427 22.438 19.88 19.761 19.632C17.781 19.449 17.431 18.561 17.869 17.912C18.421 17.097 19.426 18.067 21.084 17.571C22.744 17.075 25.066 16.191 25.927 15.708C27.919 14.596 25.093 14.138 24.427 14.444C23.796 14.738 21.597 15.293 20.573 15.538C20.518 15.551 20.467 15.564 20.419 15.574C19.486 15.799 19.139 15.783 18.019 15.852C17.13 15.909 15.95 16.65 15.453 17.259C15.323 17.416 15.241 17.565 15.221 17.691C15.144 18.159 15.327 18.616 15.588 18.983C15.773 19.242 15.996 19.455 16.194 19.592C16.196 19.592 16.197 19.594 16.199 19.595C16.674 19.925 19.841 20.994 21.414 20.965H21.415Z" fill="#FDD20A"/>
<path d="M15.526 25.313H15.524C15.524 25.197 15.616 25.094 15.764 25.007V25.02L15.766 25.022C15.766 26.264 15.596 26.834 16.053 26.999C16.079 27.009 16.108 27.017 16.139 27.023C16.439 27.092 16.881 27.087 17.286 27.03C17.561 26.991 17.819 26.928 18.004 26.847L18.041 26.83C18.0766 26.8134 18.111 26.7944 18.144 26.773C18.1851 26.7429 18.2175 26.7026 18.238 26.656C19.092 26.987 20.823 27.621 21.196 27.482C21.697 27.29 21.573 23.284 21.009 23.156C20.559 23.056 18.835 24.27 18.154 24.766C18.1355 24.6817 18.1111 24.5989 18.081 24.518C18.021 24.366 17.474 24.346 16.928 24.432C16.6952 24.4655 16.4664 24.5224 16.245 24.602C16.1077 24.6479 15.9801 24.7191 15.869 24.812C14.816 24.289 12.661 23.294 12.615 23.908C12.551 24.724 12.615 28.042 13.052 28.293C13.332 28.453 14.712 27.746 15.672 27.213C15.395 26.978 15.526 26.403 15.526 25.313V25.313Z" fill="#65BC46"/>
<path d="M18 26.848C17.77 26.9398 17.5289 27.0014 17.283 27.031C16.878 27.087 16.436 27.093 16.136 27.025C16.1068 27.0187 16.078 27.0104 16.05 27C15.594 26.835 15.763 26.265 15.763 25.023L15.761 25.021V25.008C15.613 25.095 15.521 25.198 15.521 25.314H15.523C15.523 26.404 15.393 26.979 15.668 27.214C15.726 27.264 15.799 27.298 15.896 27.319C16.288 27.407 16.922 27.372 17.398 27.259C17.608 27.21 17.788 27.145 17.903 27.069C17.9608 27.0234 18.0022 26.9602 18.021 26.889C18.0273 26.8702 18.0329 26.8512 18.038 26.832L18.001 26.848H18Z" fill="#43A244"/>
<path d="M16.003 1.34C7.905 1.34 1.34 7.905 1.34 16.003C1.34 22.613 5.712 28.199 11.722 30.032C13.077 30.444 14.514 30.666 16.002 30.666C17.031 30.666 18.034 30.561 19.002 30.359C25.661 28.974 30.665 23.073 30.665 16.003C30.665 7.906 24.1 1.34 16.003 1.34V1.34ZM19.144 29.047C18.718 28.227 18.324 27.478 18.021 26.889C18.0024 26.9603 17.961 27.0235 17.903 27.069C17.7464 27.1599 17.5757 27.2241 17.398 27.259C16.921 27.372 16.288 27.405 15.896 27.319C15.8129 27.3036 15.7349 27.2679 15.669 27.215C14.709 27.747 13.329 28.455 13.048 28.295C12.611 28.044 12.548 24.725 12.611 23.909C12.658 23.294 14.814 24.289 15.865 24.814C15.9763 24.7208 16.1042 24.6496 16.242 24.604C16.442 24.528 16.682 24.47 16.924 24.433C16.297 22.745 15.889 20.925 16.194 19.592C15.9591 19.4242 15.7542 19.218 15.588 18.982C15.328 18.616 15.145 18.159 15.221 17.692C15.242 17.565 15.325 17.417 15.453 17.259C15.95 16.65 17.129 15.909 18.02 15.852C19.14 15.782 19.486 15.799 20.42 15.574L20.574 15.538C21.144 13.516 19.77 10.007 18.231 8.47C17.73 7.969 16.961 7.654 16.093 7.49C15.76 7.03 15.221 6.594 14.459 6.186C12.9639 5.40269 11.2527 5.13249 9.589 5.417H9.593C9.862 5.448 10.459 5.987 10.701 6.022C10.6464 6.05734 10.588 6.08652 10.527 6.109C10.299 6.196 9.987 6.249 9.743 6.349C9.523 6.439 9.358 6.568 9.36 6.796C10.672 6.663 12.106 6.871 13.316 7.41C13.226 7.42 13.137 7.43 13.05 7.443C12.192 7.561 11.402 7.787 10.835 8.086C10.81 8.099 10.785 8.112 10.762 8.126C8.993 9.098 8.532 11.004 9.006 13.661C9.463 16.212 11.386 25.148 12.157 28.858C11.9095 28.7844 11.6644 28.703 11.422 28.614C6.271 26.742 2.592 21.803 2.592 16.004C2.592 8.596 8.597 2.591 16.005 2.591C23.412 2.591 29.417 8.596 29.417 16.004C29.416 22.33 25.036 27.633 19.144 29.047V29.047ZM10.207 11.93C10.207 11.93 9.815 11.056 10.86 10.627C11.907 10.2 12.42 10.872 12.42 10.872C12.42 10.872 11.658 10.525 10.919 10.992C10.179 11.456 10.207 11.93 10.207 11.93V11.93ZM12.128 12.785C12.3959 12.785 12.6528 12.8914 12.8422 13.0808C13.0316 13.2702 13.138 13.5271 13.138 13.795C13.138 14.0629 13.0316 14.3198 12.8422 14.5092C12.6528 14.6986 12.3959 14.805 12.128 14.805C11.8601 14.805 11.6032 14.6986 11.4138 14.5092C11.2244 14.3198 11.118 14.0629 11.118 13.795C11.118 13.5271 11.2244 13.2702 11.4138 13.0808C11.6032 12.8914 11.8601 12.785 12.128 12.785ZM18.428 10.495C17.557 10.506 17.32 10.89 17.32 10.89C17.32 10.89 17.466 9.973 18.58 10.157C18.944 10.223 19.251 10.464 19.401 10.803C19.401 10.803 18.855 10.49 18.428 10.495V10.495ZM19.746 13.196C19.746 13.4259 19.6547 13.6465 19.4921 13.8091C19.3295 13.9717 19.1089 14.063 18.879 14.063C18.6491 14.063 18.4285 13.9717 18.2659 13.8091C18.1033 13.6465 18.012 13.4259 18.012 13.196C18.012 12.9661 18.1033 12.7455 18.2659 12.5829C18.4285 12.4203 18.6491 12.329 18.879 12.329C19.1089 12.329 19.3295 12.4203 19.4921 12.5829C19.6547 12.7455 19.746 12.9661 19.746 13.196V13.196Z" fill="white"/>
<path d="M45.91 9.216H41V22.73H45.91C50.606 22.73 52.657 19.27 52.657 15.865C52.657 12.675 50.551 9.216 45.91 9.216ZM50.984 15.811C50.984 18.405 49.419 21 45.964 21H42.727V10.892H45.911C49.365 10.892 50.984 13.432 50.984 15.811ZM73.576 16.838H77.731V19.973C76.706 20.838 75.464 21.324 74.115 21.324C70.446 21.324 68.773 18.676 68.773 16.081C68.773 13.432 70.446 10.568 74.061 10.568C75.518 10.568 76.868 11.108 77.947 12.081L78.001 12.135L78.972 11L78.918 10.946C77.623 9.649 75.896 9 74.007 9C71.957 9 70.23 9.649 68.989 10.946C67.693 12.243 66.992 14.081 67.046 16.136C67.046 19.324 68.881 23 74.061 23H74.169C76.112 23 77.947 22.19 79.242 20.73V15.378H73.522V16.838H73.576ZM59 9.216H54.09V22.73H59C63.696 22.73 65.746 19.27 65.746 15.865C65.746 12.675 63.641 9.216 59 9.216ZM64.073 15.811C64.073 18.405 62.508 21 59.055 21H55.87V10.892H59.054C62.454 10.892 64.073 13.432 64.073 15.811Z" fill="white"/>
<path d="M87.636 23V11.353H83.076V9.70001H94.077V11.353H89.517V23H87.636Z" fill="white"/>
<path d="M100.957 12.835C101.781 12.835 102.503 12.9933 103.123 13.31C103.757 13.6267 104.251 14.108 104.605 14.754C104.96 15.4 105.137 16.217 105.137 17.205V23H103.313V17.414C103.313 16.4387 103.073 15.704 102.591 15.21C102.123 14.716 101.458 14.469 100.596 14.469C99.9504 14.469 99.3867 14.5957 98.9054 14.849C98.424 15.1023 98.0504 15.476 97.7844 15.97C97.531 16.464 97.4044 17.0783 97.4044 17.813V23H95.5804V8.90201H97.4044V15.647L97.0434 14.925C97.3727 14.2663 97.8794 13.7533 98.5634 13.386C99.2474 13.0187 100.045 12.835 100.957 12.835Z" fill="white"/>
<path d="M112.697 23.114C111.62 23.114 110.67 22.8923 109.847 22.449C109.036 22.0057 108.403 21.3977 107.947 20.625C107.504 19.8523 107.282 18.9657 107.282 17.965C107.282 16.9643 107.497 16.0777 107.928 15.305C108.371 14.5323 108.973 13.9307 109.733 13.5C110.506 13.0567 111.373 12.835 112.336 12.835C113.311 12.835 114.173 13.0503 114.92 13.481C115.667 13.9117 116.25 14.5197 116.668 15.305C117.099 16.0777 117.314 16.9833 117.314 18.022C117.314 18.098 117.308 18.1867 117.295 18.288C117.295 18.3893 117.289 18.4843 117.276 18.573H108.707V17.262H116.326L115.585 17.718C115.598 17.072 115.465 16.4957 115.186 15.989C114.907 15.4823 114.521 15.0897 114.027 14.811C113.546 14.5197 112.982 14.374 112.336 14.374C111.703 14.374 111.139 14.5197 110.645 14.811C110.151 15.0897 109.765 15.4887 109.486 16.008C109.207 16.5147 109.068 17.0973 109.068 17.756V18.06C109.068 18.7313 109.22 19.333 109.524 19.865C109.841 20.3843 110.278 20.7897 110.835 21.081C111.392 21.3723 112.032 21.518 112.754 21.518C113.349 21.518 113.888 21.4167 114.369 21.214C114.863 21.0113 115.294 20.7073 115.661 20.302L116.668 21.48C116.212 22.012 115.642 22.4173 114.958 22.696C114.287 22.9747 113.533 23.114 112.697 23.114Z" fill="white"/>
<path d="M132.144 12.835C132.954 12.835 133.67 12.9933 134.291 13.31C134.911 13.6267 135.393 14.108 135.735 14.754C136.089 15.4 136.267 16.217 136.267 17.205V23H134.443V17.414C134.443 16.4387 134.215 15.704 133.759 15.21C133.303 14.716 132.663 14.469 131.84 14.469C131.232 14.469 130.7 14.5957 130.244 14.849C129.788 15.1023 129.433 15.476 129.18 15.97C128.939 16.464 128.819 17.0783 128.819 17.813V23H126.995V17.414C126.995 16.4387 126.767 15.704 126.311 15.21C125.867 14.716 125.228 14.469 124.392 14.469C123.796 14.469 123.271 14.5957 122.815 14.849C122.359 15.1023 122.004 15.476 121.751 15.97C121.497 16.464 121.371 17.0783 121.371 17.813V23H119.547V12.93H121.295V15.609L121.01 14.925C121.326 14.2663 121.814 13.7533 122.473 13.386C123.131 13.0187 123.898 12.835 124.772 12.835C125.734 12.835 126.564 13.0757 127.261 13.557C127.957 14.0257 128.413 14.7413 128.629 15.704L127.888 15.4C128.192 14.6273 128.724 14.0067 129.484 13.538C130.244 13.0693 131.13 12.835 132.144 12.835Z" fill="white"/>
<path d="M143.807 23.114C142.73 23.114 141.78 22.8923 140.957 22.449C140.146 22.0057 139.513 21.3977 139.057 20.625C138.614 19.8523 138.392 18.9657 138.392 17.965C138.392 16.9643 138.607 16.0777 139.038 15.305C139.481 14.5323 140.083 13.9307 140.843 13.5C141.616 13.0567 142.483 12.835 143.446 12.835C144.421 12.835 145.283 13.0503 146.03 13.481C146.777 13.9117 147.36 14.5197 147.778 15.305C148.209 16.0777 148.424 16.9833 148.424 18.022C148.424 18.098 148.418 18.1867 148.405 18.288C148.405 18.3893 148.399 18.4843 148.386 18.573H139.817V17.262H147.436L146.695 17.718C146.708 17.072 146.575 16.4957 146.296 15.989C146.017 15.4823 145.631 15.0897 145.137 14.811C144.656 14.5197 144.092 14.374 143.446 14.374C142.813 14.374 142.249 14.5197 141.755 14.811C141.261 15.0897 140.875 15.4887 140.596 16.008C140.317 16.5147 140.178 17.0973 140.178 17.756V18.06C140.178 18.7313 140.33 19.333 140.634 19.865C140.951 20.3843 141.388 20.7897 141.945 21.081C142.502 21.3723 143.142 21.518 143.864 21.518C144.459 21.518 144.998 21.4167 145.479 21.214C145.973 21.0113 146.404 20.7073 146.771 20.302L147.778 21.48C147.322 22.012 146.752 22.4173 146.068 22.696C145.397 22.9747 144.643 23.114 143.807 23.114Z" fill="white"/>
<path d="M153.545 23.114C152.709 23.114 151.911 23 151.151 22.772C150.403 22.544 149.814 22.2653 149.384 21.936L150.144 20.492C150.574 20.7833 151.106 21.0303 151.74 21.233C152.373 21.4357 153.019 21.537 153.678 21.537C154.526 21.537 155.134 21.4167 155.502 21.176C155.882 20.9353 156.072 20.5997 156.072 20.169C156.072 19.8523 155.958 19.6053 155.73 19.428C155.502 19.2507 155.198 19.1177 154.818 19.029C154.45 18.9403 154.039 18.8643 153.583 18.801C153.127 18.725 152.671 18.6363 152.215 18.535C151.759 18.421 151.341 18.269 150.961 18.079C150.581 17.8763 150.277 17.604 150.049 17.262C149.821 16.9073 149.707 16.4387 149.707 15.856C149.707 15.248 149.878 14.716 150.22 14.26C150.562 13.804 151.043 13.4557 151.664 13.215C152.297 12.9617 153.044 12.835 153.906 12.835C154.564 12.835 155.229 12.9173 155.901 13.082C156.585 13.234 157.142 13.4557 157.573 13.747L156.794 15.191C156.338 14.887 155.863 14.678 155.369 14.564C154.875 14.45 154.381 14.393 153.887 14.393C153.089 14.393 152.493 14.526 152.101 14.792C151.708 15.0453 151.512 15.3747 151.512 15.78C151.512 16.122 151.626 16.388 151.854 16.578C152.094 16.7553 152.398 16.8947 152.766 16.996C153.146 17.0973 153.564 17.186 154.02 17.262C154.476 17.3253 154.932 17.414 155.388 17.528C155.844 17.6293 156.255 17.775 156.623 17.965C157.003 18.155 157.307 18.421 157.535 18.763C157.775 19.105 157.896 19.561 157.896 20.131C157.896 20.739 157.718 21.2647 157.364 21.708C157.009 22.1513 156.509 22.4997 155.863 22.753C155.217 22.9937 154.444 23.114 153.545 23.114Z" fill="white"/>
</g>
<defs>
<linearGradient id="paint0_linear_1_3" x1="10.136" y1="11.207" x2="12.421" y2="11.207" gradientUnits="userSpaceOnUse">
<stop offset="0.01" stop-color="#6176B9"/>
<stop offset="0.69" stop-color="#394A9F"/>
</linearGradient>
<linearGradient id="paint1_linear_1_3" x1="17.32" y1="10.511" x2="19.402" y2="10.511" gradientUnits="userSpaceOnUse">
<stop offset="0.01" stop-color="#6176B9"/>
<stop offset="0.69" stop-color="#394A9F"/>
</linearGradient>
<clipPath id="clip0_1_3">
<rect width="158" height="32" fill="white"/>
</clipPath>
</defs>
</svg>
