<svg width="195" height="54" viewBox="0 0 195 54" fill="none" xmlns="http://www.w3.org/2000/svg">
<g clip-path="url(#clip0_6_103)">
<path d="M26.973 4.36084C14.4843 4.36084 4.36084 14.4877 4.36084 26.9764C4.36084 36.7526 10.5647 45.0789 19.2485 48.2348C17.824 41.4358 14.9058 27.8294 14.1876 23.7834C13.3784 19.2434 14.7355 15.4553 17.8105 13.8369C17.9082 13.7864 18.0178 13.7392 18.1375 13.692C18.178 13.6717 18.2184 13.6481 18.2589 13.6245C19.2165 13.1205 20.5483 12.7411 21.9947 12.5422C19.9498 11.9303 17.1564 11.7954 15.2682 11.9893C15.2598 11.674 15.5514 11.0081 15.9426 10.8294C16.0875 10.7637 16.2494 10.7232 16.418 10.6945C16.8293 10.526 17.3553 10.4383 17.7397 10.2899C16.949 9.96963 15.6931 9.38464 15.3626 9.35092C15.6324 9.30878 15.833 9.18908 16.1668 9.12671H16.1583C18.9631 8.64593 21.8482 9.1015 24.3684 10.4231C25.6547 11.1093 26.5633 11.8477 27.1247 12.6215C28.5914 12.8996 29.8844 13.4307 30.7291 14.2736C33.3236 16.8647 35.6399 22.7803 34.679 26.1891C36.4019 25.7761 40.1108 24.8404 41.1728 24.3448C42.2973 23.8289 47.0615 24.601 43.705 26.4757C42.2518 27.2883 38.3389 28.7819 35.5388 29.6164C32.7419 30.4526 31.0494 28.8156 30.1188 30.1913C29.3821 31.2837 29.9704 32.7807 33.3084 33.0909C37.8214 33.509 42.1456 31.0612 42.621 32.3626C43.0981 33.6675 38.7469 35.2842 36.0968 35.3381C33.4449 35.3887 28.1059 33.5849 27.3051 33.0285L27.2967 33.0235C26.7825 35.2724 27.4703 38.3389 28.5273 41.1829C29.4512 41.043 30.37 41.075 30.4728 41.3296C30.5065 41.4156 30.5487 41.5623 30.5942 41.7494C31.7422 40.9115 34.6486 38.8632 35.4073 39.0335C36.3564 39.2493 36.5671 46.0028 35.7242 46.3264C35.092 46.5625 32.1755 45.4919 30.7341 44.9339C30.7011 45.0129 30.6469 45.0812 30.5773 45.1312C30.522 45.1675 30.4639 45.1997 30.4037 45.2273C30.3955 45.2597 30.3859 45.2918 30.375 45.3234C30.8842 46.318 31.5501 47.5773 32.2682 48.9597C42.2012 46.5793 49.5852 37.6393 49.5852 26.973C49.5852 14.486 39.46 4.36252 26.9713 4.36252L26.973 4.36084Z" fill="#DE5833"/>
<path d="M26.9747 0.00799942C12.082 0.00799942 0.00800323 12.0803 0.00800323 26.973C0.00800323 40.6789 10.2309 51.9959 23.4681 53.7138C25.4797 53.9757 27.5143 54.0114 29.5338 53.82C43.2262 52.5303 53.938 41.0026 53.938 26.973C53.9414 12.082 41.8674 0.00799942 26.9747 0.00799942ZM32.0322 51.1749C30.3986 51.5154 28.7077 51.6925 26.9747 51.6925C24.4628 51.6925 22.0402 51.3182 19.7593 50.622C9.6274 47.5369 2.25523 38.1147 2.25523 26.973C2.25523 13.3228 13.3228 2.25354 26.9747 2.25354C40.6249 2.25354 51.6925 13.3211 51.6925 26.973C51.6925 38.8919 43.2582 48.84 32.0322 51.1749V51.1749Z" fill="#DE5833"/>
<path d="M14.1909 23.7817C14.9108 27.8277 17.8273 41.4341 19.2552 48.2314C19.6598 48.3798 20.0745 48.5163 20.4926 48.6428C19.1912 42.3883 15.951 27.3253 15.1805 23.0231C14.3831 18.5438 15.1586 15.3306 18.1409 13.692C18.0289 13.7333 17.9196 13.7817 17.8138 13.8369C14.7405 15.4553 13.3834 19.2434 14.1909 23.7834V23.7817ZM15.2733 11.9893C17.158 11.7971 19.9498 11.9302 21.9981 12.5405C22.1464 12.5203 22.2948 12.5001 22.4448 12.4849C20.405 11.5745 17.9858 11.2256 15.7756 11.4498C15.7723 11.0654 16.0504 10.8479 16.4213 10.6962C16.2527 10.7232 16.0943 10.767 15.9459 10.8294C15.5565 11.0115 15.2631 11.674 15.2716 11.9893H15.2733ZM17.743 10.2933C17.8455 10.2557 17.9434 10.2065 18.0347 10.1466C17.6284 10.0893 16.6202 9.18064 16.1668 9.1267C15.8363 9.18907 15.6357 9.31214 15.3643 9.35091C15.6981 9.38463 16.9524 9.9713 17.743 10.2933Z" fill="#D5D7D8"/>
<path d="M20.4454 24.955C20.897 24.955 21.3301 24.7757 21.6494 24.4563C21.9687 24.137 22.1481 23.7039 22.1481 23.2523C22.1481 22.8008 21.9687 22.3677 21.6494 22.0484C21.3301 21.729 20.897 21.5497 20.4454 21.5497C19.9939 21.5497 19.5608 21.729 19.2415 22.0484C18.9221 22.3677 18.7427 22.8008 18.7427 23.2523C18.7427 23.7039 18.9221 24.137 19.2415 24.4563C19.5608 24.7757 19.9939 24.955 20.4454 24.955ZM21.2041 22.2459C21.2643 22.2422 21.3246 22.2508 21.3813 22.2713C21.438 22.2918 21.4899 22.3236 21.5339 22.3649C21.5778 22.4062 21.6128 22.4561 21.6368 22.5114C21.6607 22.5668 21.673 22.6264 21.673 22.6867C21.673 22.7471 21.6607 22.8067 21.6368 22.8621C21.6128 22.9174 21.5778 22.9673 21.5339 23.0086C21.4899 23.0499 21.438 23.0817 21.3813 23.1022C21.3246 23.1227 21.2643 23.1313 21.2041 23.1276C21.0919 23.1207 20.9865 23.0712 20.9095 22.9893C20.8325 22.9074 20.7897 22.7992 20.7897 22.6867C20.7897 22.5743 20.8325 22.4661 20.9095 22.3842C20.9865 22.3023 21.0919 22.2528 21.2041 22.2459V22.2459Z" fill="#2D4F8E"/>
<path d="M21.2058 23.1259C21.2659 23.1296 21.3263 23.121 21.383 23.1005C21.4397 23.0801 21.4916 23.0482 21.5356 23.0069C21.5795 22.9656 21.6145 22.9157 21.6384 22.8604C21.6624 22.805 21.6747 22.7454 21.6747 22.6851C21.6747 22.6248 21.6624 22.5651 21.6384 22.5098C21.6145 22.4544 21.5795 22.4045 21.5356 22.3632C21.4916 22.3219 21.4397 22.2901 21.383 22.2696C21.3263 22.2491 21.2659 22.2405 21.2058 22.2442C21.0936 22.2512 20.9882 22.3006 20.9112 22.3825C20.8342 22.4645 20.7913 22.5726 20.7913 22.6851C20.7913 22.7975 20.8342 22.9057 20.9112 22.9876C20.9882 23.0695 21.0936 23.119 21.2058 23.1259V23.1259Z" fill="white"/>
<path d="M30.3666 22.2408C30.36 22.4369 30.3928 22.6322 30.4632 22.8152C30.5336 22.9983 30.6402 23.1653 30.7765 23.3063C30.9128 23.4473 31.0761 23.5595 31.2566 23.636C31.4372 23.7126 31.6313 23.7521 31.8274 23.7521C32.0235 23.7521 32.2176 23.7126 32.3982 23.636C32.5787 23.5595 32.742 23.4473 32.8783 23.3063C33.0146 23.1653 33.1211 22.9983 33.1916 22.8152C33.262 22.6322 33.2948 22.4369 33.2882 22.2408C33.2753 21.862 33.1158 21.503 32.8432 21.2396C32.5707 20.9761 32.2064 20.8289 31.8274 20.8289C31.4483 20.8289 31.0841 20.9761 30.8116 21.2396C30.539 21.503 30.3795 21.862 30.3666 22.2408V22.2408ZM32.4773 21.3794C32.5291 21.3759 32.5811 21.3831 32.63 21.4006C32.6789 21.4181 32.7237 21.4454 32.7617 21.4808C32.7996 21.5163 32.8299 21.5592 32.8505 21.6069C32.8712 21.6545 32.8819 21.7059 32.8819 21.7579C32.8819 21.8098 32.8712 21.8612 32.8505 21.9088C32.8299 21.9565 32.7996 21.9994 32.7617 22.0349C32.7237 22.0703 32.6789 22.0977 32.63 22.1151C32.5811 22.1326 32.5291 22.1398 32.4773 22.1363C32.3767 22.1363 32.2802 22.0964 32.2091 22.0252C32.1379 21.9541 32.098 21.8576 32.098 21.757C32.098 21.6564 32.1379 21.5599 32.2091 21.4888C32.2802 21.4177 32.3767 21.3777 32.4773 21.3777V21.3794Z" fill="#2D4F8E"/>
<path d="M32.4756 22.133C32.5254 22.133 32.5747 22.1232 32.6208 22.1041C32.6668 22.085 32.7086 22.0571 32.7438 22.0219C32.779 21.9866 32.807 21.9448 32.826 21.8988C32.8451 21.8528 32.8549 21.8035 32.8549 21.7536C32.8549 21.7038 32.8451 21.6545 32.826 21.6085C32.807 21.5625 32.779 21.5207 32.7438 21.4854C32.7086 21.4502 32.6668 21.4223 32.6208 21.4032C32.5747 21.3841 32.5254 21.3743 32.4756 21.3743C32.375 21.3743 32.2785 21.4143 32.2074 21.4854C32.1362 21.5566 32.0963 21.653 32.0963 21.7536C32.0963 21.8542 32.1362 21.9507 32.2074 22.0219C32.2785 22.093 32.375 22.133 32.4756 22.133ZM18.4039 18.5236C19.6497 17.738 20.9343 18.3213 20.9343 18.3213C20.9343 18.3213 20.0729 17.1901 18.3044 17.9082C16.5444 18.6332 17.2053 20.1066 17.2053 20.1066C17.2053 20.1066 17.1581 19.3075 18.4039 18.5236V18.5236Z" fill="white"/>
<path d="M18.4039 18.5236C19.6497 17.738 20.9343 18.3213 20.9343 18.3213C20.9343 18.3213 20.0729 17.1901 18.3044 17.9082C16.5444 18.6332 17.2053 20.1066 17.2053 20.1066C17.2053 20.1066 17.1581 19.3075 18.4039 18.5236V18.5236Z" fill="url(#paint0_linear_6_103)"/>
<path d="M31.3191 17.1176C29.4411 16.8091 29.1949 18.3533 29.1949 18.3533C29.1949 18.3533 29.5928 17.7059 31.0629 17.6874C31.7827 17.679 32.7032 18.205 32.7032 18.205C32.5788 17.9248 32.3878 17.6793 32.1469 17.4898C31.9059 17.3003 31.6224 17.1725 31.3208 17.1176H31.3191Z" fill="white"/>
<path d="M31.3191 17.1176C29.4411 16.8091 29.1949 18.3533 29.1949 18.3533C29.1949 18.3533 29.5928 17.7059 31.0629 17.6874C31.7827 17.679 32.7032 18.205 32.7032 18.205C32.5788 17.9248 32.3878 17.6793 32.1469 17.4898C31.9059 17.3003 31.6224 17.1725 31.3208 17.1176H31.3191Z" fill="url(#paint1_linear_6_103)"/>
<path d="M36.0968 35.3381C38.7486 35.2842 43.0981 33.6675 42.621 32.3626C42.1456 31.0595 37.8214 33.509 33.3084 33.0909C29.9704 32.7824 29.3804 31.2854 30.1188 30.1913C31.0494 28.8173 32.7436 30.4526 35.5387 29.6164C38.3372 28.7802 42.2518 27.2899 43.7033 26.4757C47.0615 24.601 42.2973 23.8289 41.1745 24.3448C40.1107 24.8404 36.4036 25.7761 34.6773 26.1891C34.5846 26.211 34.4986 26.2329 34.4177 26.2498C32.8448 26.6291 32.2598 26.6021 30.3716 26.7184C28.8729 26.8145 26.8836 28.0637 26.0458 29.0904C25.8266 29.3551 25.6884 29.6063 25.6547 29.8187C25.5249 30.6077 25.8334 31.3781 26.2734 31.9968C26.5853 32.4334 26.9612 32.7925 27.295 33.0235C27.2984 33.0235 27.3 33.0268 27.3034 33.0285C28.1042 33.5849 33.4432 35.387 36.0951 35.3381H36.0968Z" fill="#FDD20A"/>
<path d="M26.1688 42.6682H26.1655C26.1655 42.4726 26.3206 42.299 26.5701 42.1523V42.1742L26.5735 42.1776C26.5735 44.2714 26.2869 45.2323 27.0573 45.5105C27.1011 45.5273 27.15 45.5408 27.2023 45.5509C27.708 45.6673 28.4532 45.6588 29.1359 45.5628C29.5995 45.497 30.0345 45.3908 30.3464 45.2542L30.4087 45.2256C30.4688 45.1977 30.5268 45.1655 30.5824 45.1295C30.6516 45.0788 30.7062 45.0108 30.7408 44.9322C32.1806 45.4903 35.0987 46.5591 35.7276 46.3247C36.5722 46.0011 36.3631 39.2476 35.4123 39.0318C34.6537 38.8632 31.7473 40.9098 30.5992 41.746C30.5681 41.6039 30.5269 41.4642 30.4762 41.3279C30.375 41.0717 29.4529 41.038 28.5324 41.1829C28.1399 41.2394 27.7541 41.3354 27.381 41.4695C27.1494 41.5469 26.9344 41.667 26.7471 41.8236C24.9719 40.9419 21.3389 39.2645 21.2614 40.2996C21.1535 41.6752 21.2614 47.2688 21.9981 47.692C22.4701 47.9617 24.7966 46.7698 26.415 45.8713C25.948 45.4751 26.1688 44.5057 26.1688 42.6682V42.6682Z" fill="#65BC46"/>
<path d="M30.3396 45.2559C29.9518 45.4108 29.5455 45.5145 29.1309 45.5644C28.4481 45.6588 27.703 45.669 27.1972 45.5543C27.148 45.5437 27.0995 45.5296 27.0522 45.5122C26.2835 45.234 26.5684 44.2731 26.5684 42.1793L26.565 42.1759V42.154C26.3155 42.3007 26.1604 42.4743 26.1604 42.6699H26.1638C26.1638 44.5074 25.9446 45.4768 26.4083 45.8729C26.506 45.9572 26.6291 46.0146 26.7926 46.05C27.4535 46.1983 28.5223 46.1393 29.3248 45.9488C29.6788 45.8662 29.9822 45.7566 30.1761 45.6285C30.2735 45.5516 30.3433 45.4451 30.375 45.325C30.3856 45.2933 30.3952 45.2613 30.4037 45.229L30.3413 45.2559H30.3396Z" fill="#43A244"/>
<path d="M26.973 2.25354C13.3211 2.25354 2.25354 13.3211 2.25354 26.973C2.25354 38.1164 9.62403 47.5335 19.7559 50.6236C22.0402 51.3182 24.4628 51.6925 26.9713 51.6925C28.706 51.6925 30.3969 51.5154 32.0288 51.1749C43.2548 48.84 51.6908 38.8919 51.6908 26.973C51.6908 13.3228 40.6232 2.25354 26.973 2.25354V2.25354ZM32.2682 48.9631C31.5501 47.5807 30.8858 46.318 30.375 45.325C30.3437 45.4452 30.2738 45.5518 30.1761 45.6285C29.912 45.7817 29.6243 45.89 29.3248 45.9488C28.5206 46.1393 27.4535 46.1949 26.7926 46.05C26.6525 46.024 26.5211 45.9638 26.4099 45.8746C24.7915 46.7715 22.4651 47.9651 21.9913 47.6953C21.2546 47.2722 21.1484 41.6769 21.2546 40.3012C21.3339 39.2645 24.9685 40.9419 26.7404 41.8269C26.928 41.6699 27.1436 41.5497 27.3759 41.4729C27.7131 41.3448 28.1177 41.247 28.5257 41.1846C27.4686 38.3389 26.7808 35.2707 27.295 33.0235C26.899 32.7406 26.5536 32.393 26.2734 31.9951C25.8351 31.3781 25.5266 30.6077 25.6547 29.8204C25.6901 29.6063 25.83 29.3568 26.0458 29.0904C26.8837 28.0637 28.8713 26.8145 30.3733 26.7184C32.2615 26.6004 32.8448 26.6291 34.4194 26.2498L34.679 26.1891C35.6399 22.7803 33.3236 16.8647 30.7291 14.2736C29.8844 13.429 28.588 12.8979 27.1247 12.6214C26.5633 11.846 25.6547 11.1109 24.3701 10.4231C21.8495 9.10258 18.9648 8.64707 16.16 9.1267H16.1668C16.6203 9.17897 17.6267 10.0876 18.0347 10.1466C17.9426 10.2062 17.8442 10.2554 17.7413 10.2933C17.357 10.44 16.831 10.5293 16.4196 10.6979C16.0488 10.8496 15.7706 11.0671 15.774 11.4515C17.9858 11.2273 20.4033 11.5779 22.4432 12.4866C22.2914 12.5034 22.1414 12.5203 21.9947 12.5422C20.5483 12.7411 19.2165 13.1221 18.2606 13.6262C18.2184 13.6481 18.1763 13.67 18.1375 13.6936C15.1553 15.3323 14.3781 18.5455 15.1772 23.0248C15.9476 27.3253 19.1895 42.39 20.4893 48.6445C20.072 48.5203 19.6588 48.3831 19.2502 48.2331C10.5664 45.0772 4.36421 36.7509 4.36421 26.9747C4.36421 14.486 14.4877 4.36252 26.9764 4.36252C39.4634 4.36252 49.5869 14.486 49.5869 26.9747C49.5852 37.6393 42.2012 46.5793 32.2682 48.9631V48.9631ZM17.2019 20.1066C17.2019 20.1066 16.541 18.6332 18.3027 17.9099C20.0678 17.1901 20.9326 18.323 20.9326 18.323C20.9326 18.323 19.648 17.738 18.4022 18.5253C17.1547 19.3075 17.2019 20.1066 17.2019 20.1066V20.1066ZM20.4404 21.548C20.892 21.548 21.325 21.7274 21.6444 22.0467C21.9637 22.366 22.1431 22.7991 22.1431 23.2507C22.1431 23.7022 21.9637 24.1353 21.6444 24.4547C21.325 24.774 20.892 24.9534 20.4404 24.9534C19.9888 24.9534 19.5557 24.774 19.2364 24.4547C18.9171 24.1353 18.7377 23.7022 18.7377 23.2507C18.7377 22.7991 18.9171 22.366 19.2364 22.0467C19.5557 21.7274 19.9888 21.548 20.4404 21.548ZM31.0612 17.6874C29.5928 17.7059 29.1933 18.3533 29.1933 18.3533C29.1933 18.3533 29.4394 16.8074 31.3174 17.1176C31.9311 17.2288 32.4486 17.6351 32.7015 18.2066C32.7015 18.2066 31.781 17.679 31.0612 17.6874V17.6874ZM33.2831 22.2408C33.2831 22.6285 33.1291 23.0003 32.855 23.2744C32.5809 23.5485 32.2091 23.7025 31.8215 23.7025C31.4338 23.7025 31.0621 23.5485 30.788 23.2744C30.5138 23.0003 30.3599 22.6285 30.3599 22.2408C30.3599 21.8532 30.5138 21.4814 30.788 21.2073C31.0621 20.9332 31.4338 20.7792 31.8215 20.7792C32.2091 20.7792 32.5809 20.9332 32.855 21.2073C33.1291 21.4814 33.2831 21.8532 33.2831 22.2408V22.2408Z" fill="white"/>
<path d="M68.5209 18.2469H63V33.6914H68.5209C73.8012 33.6914 76.1073 29.7371 76.1073 25.8457C76.1073 22.2 73.7393 18.2469 68.5209 18.2469ZM74.2262 25.784C74.2262 28.7486 72.4665 31.7143 68.5816 31.7143H64.9419V20.1623H68.522C72.4058 20.1623 74.2262 23.0651 74.2262 25.784ZM99.629 26.9577H104.301V30.5406C103.148 31.5291 101.752 32.0846 100.235 32.0846C96.1096 32.0846 94.2285 29.0583 94.2285 26.0926C94.2285 23.0651 96.1096 19.792 100.174 19.792C101.813 19.792 103.331 20.4091 104.544 21.5211L104.605 21.5829L105.696 20.2857L105.636 20.224C104.18 18.7417 102.238 18 100.114 18C97.8086 18 95.8667 18.7417 94.4713 20.224C93.0141 21.7063 92.2259 23.8069 92.2866 26.1554C92.2866 29.7989 94.3499 34 100.174 34H100.296C102.481 34 104.544 33.0743 106 31.4057V25.2891H99.5683V26.9577H99.629ZM83.2395 18.2469H77.7186V33.6914H83.2395C88.5198 33.6914 90.8249 29.7371 90.8249 25.8457C90.8249 22.2 88.4579 18.2469 83.2395 18.2469ZM88.9437 25.784C88.9437 28.7486 87.184 31.7143 83.3014 31.7143H79.7201V20.1623H83.3002C87.1233 20.1623 88.9437 23.0651 88.9437 25.784Z" fill="white"/>
<path d="M115.18 33.8717V20.7594H110V18.8984H122.498V20.7594H117.317V33.8717H115.18Z" fill="white"/>
<path d="M130.314 22.4278C131.25 22.4278 132.07 22.6061 132.775 22.9626C133.495 23.3191 134.056 23.861 134.459 24.5882C134.862 25.3155 135.063 26.2353 135.063 27.3476V33.8717H132.991V27.5829C132.991 26.4848 132.718 25.6578 132.171 25.1016C131.638 24.5455 130.883 24.2674 129.904 24.2674C129.17 24.2674 128.53 24.41 127.983 24.6952C127.436 24.9804 127.012 25.4011 126.71 25.9572C126.422 26.5134 126.278 27.205 126.278 28.0321V33.8717H124.206V18H126.278V25.5936L125.868 24.7807C126.242 24.0392 126.818 23.4617 127.595 23.0481C128.372 22.6346 129.278 22.4278 130.314 22.4278Z" fill="white"/>
<path d="M143.651 34C142.428 34 141.349 33.7504 140.414 33.2513C139.493 32.7522 138.773 32.0677 138.255 31.1979C137.751 30.328 137.5 29.3298 137.5 28.2032C137.5 27.0766 137.744 26.0784 138.233 25.2086C138.737 24.3387 139.421 23.6613 140.284 23.1765C141.162 22.6774 142.148 22.4278 143.241 22.4278C144.349 22.4278 145.328 22.6702 146.177 23.1551C147.026 23.6399 147.688 24.3244 148.163 25.2086C148.652 26.0784 148.897 27.098 148.897 28.2674C148.897 28.3529 148.889 28.4528 148.875 28.5668C148.875 28.6809 148.868 28.7879 148.853 28.8877H139.118V27.4118H147.774L146.932 27.9251C146.947 27.1979 146.796 26.549 146.479 25.9786C146.162 25.4082 145.724 24.9661 145.162 24.6524C144.615 24.3244 143.975 24.1604 143.241 24.1604C142.522 24.1604 141.881 24.3244 141.32 24.6524C140.759 24.9661 140.32 25.4153 140.003 26C139.687 26.5704 139.529 27.2264 139.529 27.9679V28.3102C139.529 29.066 139.701 29.7433 140.047 30.3422C140.406 30.9269 140.903 31.3832 141.536 31.7112C142.169 32.0392 142.896 32.2032 143.716 32.2032C144.392 32.2032 145.004 32.0891 145.551 31.861C146.112 31.6328 146.601 31.2906 147.019 30.8342L148.163 32.1604C147.645 32.7594 146.997 33.2157 146.22 33.5294C145.457 33.8431 144.601 34 143.651 34Z" fill="white"/>
<path d="M165.744 22.4278C166.665 22.4278 167.478 22.6061 168.183 22.9626C168.888 23.3191 169.435 23.861 169.824 24.5882C170.227 25.3155 170.428 26.2353 170.428 27.3476V33.8717H168.356V27.5829C168.356 26.4848 168.097 25.6578 167.579 25.1016C167.061 24.5455 166.334 24.2674 165.399 24.2674C164.708 24.2674 164.104 24.41 163.586 24.6952C163.068 24.9804 162.665 25.4011 162.377 25.9572C162.103 26.5134 161.967 27.205 161.967 28.0321V33.8717H159.895V27.5829C159.895 26.4848 159.636 25.6578 159.117 25.1016C158.614 24.5455 157.887 24.2674 156.937 24.2674C156.261 24.2674 155.664 24.41 155.146 24.6952C154.628 24.9804 154.225 25.4011 153.937 25.9572C153.649 26.5134 153.505 27.205 153.505 28.0321V33.8717H151.433V22.5348H153.419V25.5508L153.095 24.7807C153.455 24.0392 154.009 23.4617 154.757 23.0481C155.506 22.6346 156.376 22.4278 157.369 22.4278C158.463 22.4278 159.405 22.6988 160.197 23.2406C160.988 23.7683 161.506 24.574 161.751 25.6578L160.909 25.3155C161.254 24.4456 161.859 23.7469 162.722 23.2193C163.586 22.6916 164.593 22.4278 165.744 22.4278Z" fill="white"/>
<path d="M178.994 34C177.771 34 176.692 33.7504 175.756 33.2513C174.835 32.7522 174.116 32.0677 173.598 31.1979C173.094 30.328 172.842 29.3298 172.842 28.2032C172.842 27.0766 173.087 26.0784 173.576 25.2086C174.08 24.3387 174.764 23.6613 175.627 23.1765C176.505 22.6774 177.49 22.4278 178.584 22.4278C179.692 22.4278 180.671 22.6702 181.52 23.1551C182.369 23.6399 183.031 24.3244 183.506 25.2086C183.995 26.0784 184.239 27.098 184.239 28.2674C184.239 28.3529 184.232 28.4528 184.218 28.5668C184.218 28.6809 184.211 28.7879 184.196 28.8877H174.461V27.4118H183.117L182.275 27.9251C182.29 27.1979 182.138 26.549 181.822 25.9786C181.505 25.4082 181.066 24.9661 180.505 24.6524C179.958 24.3244 179.318 24.1604 178.584 24.1604C177.865 24.1604 177.224 24.3244 176.663 24.6524C176.102 24.9661 175.663 25.4153 175.346 26C175.03 26.5704 174.871 27.2264 174.871 27.9679V28.3102C174.871 29.066 175.044 29.7433 175.389 30.3422C175.749 30.9269 176.246 31.3832 176.879 31.7112C177.512 32.0392 178.239 32.2032 179.059 32.2032C179.735 32.2032 180.347 32.0891 180.894 31.861C181.455 31.6328 181.944 31.2906 182.362 30.8342L183.506 32.1604C182.987 32.7594 182.34 33.2157 181.563 33.5294C180.8 33.8431 179.944 34 178.994 34Z" fill="white"/>
<path d="M190.057 34C189.107 34 188.201 33.8717 187.337 33.615C186.488 33.3583 185.819 33.0446 185.33 32.6738L186.193 31.0481C186.682 31.3761 187.287 31.6542 188.006 31.8824C188.726 32.1105 189.46 32.2246 190.208 32.2246C191.172 32.2246 191.863 32.0891 192.28 31.8182C192.712 31.5472 192.928 31.1693 192.928 30.6845C192.928 30.328 192.798 30.0499 192.539 29.8503C192.28 29.6506 191.935 29.5009 191.503 29.4011C191.086 29.3012 190.618 29.2157 190.1 29.1444C189.582 29.0588 189.064 28.959 188.546 28.8449C188.028 28.7166 187.553 28.5455 187.121 28.3315C186.69 28.1034 186.344 27.7968 186.085 27.4118C185.826 27.0125 185.697 26.4848 185.697 25.8289C185.697 25.1444 185.891 24.5455 186.28 24.0321C186.668 23.5187 187.215 23.1266 187.92 22.8556C188.64 22.5704 189.489 22.4278 190.467 22.4278C191.215 22.4278 191.971 22.5205 192.734 22.7059C193.511 22.877 194.144 23.1266 194.633 23.4545L193.748 25.0802C193.23 24.738 192.69 24.5027 192.129 24.3743C191.568 24.246 191.007 24.1818 190.446 24.1818C189.539 24.1818 188.863 24.3316 188.417 24.631C187.97 24.9162 187.747 25.287 187.747 25.7433C187.747 26.1283 187.877 26.4278 188.136 26.6417C188.409 26.8414 188.755 26.9982 189.172 27.1123C189.604 27.2264 190.079 27.3262 190.597 27.4118C191.115 27.4831 191.633 27.5829 192.151 27.7112C192.669 27.8253 193.136 27.9893 193.554 28.2032C193.985 28.4171 194.331 28.7166 194.59 29.1016C194.863 29.4866 195 30 195 30.6417C195 31.3262 194.799 31.918 194.396 32.4171C193.993 32.9162 193.424 33.3084 192.69 33.5936C191.956 33.8645 191.079 34 190.057 34Z" fill="white"/>
</g>
<defs>
<linearGradient id="paint0_linear_6_103" x1="17.0822" y1="18.8877" x2="20.9343" y2="18.8877" gradientUnits="userSpaceOnUse">
<stop offset="0.01" stop-color="#6176B9"/>
<stop offset="0.69" stop-color="#394A9F"/>
</linearGradient>
<linearGradient id="paint1_linear_6_103" x1="29.1933" y1="17.7144" x2="32.7032" y2="17.7144" gradientUnits="userSpaceOnUse">
<stop offset="0.01" stop-color="#6176B9"/>
<stop offset="0.69" stop-color="#394A9F"/>
</linearGradient>
<clipPath id="clip0_6_103">
<rect width="195" height="54" fill="white"/>
</clipPath>
</defs>
</svg>
