<svg width="661" height="544" viewBox="0 0 661 544" fill="none" xmlns="http://www.w3.org/2000/svg">
<g clip-path="url(#clip0_10_74)">
<path d="M287.839 505.73L264.806 509.265L288.866 497.893C290.817 475.75 285.632 451.995 285.632 451.995C285.632 451.995 235.939 460.637 220.638 483.401C205.336 506.165 213.526 523.21 230.22 534.431C246.913 545.652 265.789 546.801 281.091 524.037C284.497 518.97 286.609 512.588 287.839 505.73Z" fill="#F2F2F2"/>
<path d="M260.67 507.514L259.916 508.636C251.082 521.634 242.042 530.332 232.909 534.597C232.777 534.661 232.643 534.716 232.511 534.781L232.226 534.162L231.959 533.563C241.949 529.044 250.995 519.245 258.703 507.91C258.955 507.547 259.211 507.178 259.455 506.803C262.676 501.975 265.656 496.906 268.365 491.856C268.578 491.467 268.79 491.068 269.001 490.67C272.542 483.986 275.608 477.385 278.126 471.553C278.305 471.141 278.48 470.726 278.65 470.317C282.87 460.427 285.433 452.932 285.989 451.265C286.06 451.063 286.096 450.95 286.105 450.924L286.733 451.129L286.743 451.127L287.377 451.335C287.367 451.361 287.249 451.741 287.009 452.435C286.124 455.034 283.655 462.043 279.877 470.939C279.704 471.34 279.53 471.755 279.35 472.166C277.312 476.902 274.926 482.12 272.221 487.463C271.544 488.807 270.861 490.122 270.173 491.41C269.968 491.812 269.756 492.21 269.543 492.599C266.615 498.059 263.658 503.03 260.67 507.514Z" fill="white"/>
<path d="M279.877 470.939C279.471 470.739 279.06 470.535 278.65 470.317C277.537 469.724 276.455 469.075 275.409 468.372C270.946 465.38 267.21 461.425 264.478 456.798C264.047 456.936 263.616 457.074 263.176 457.213C266.02 462.125 269.949 466.321 274.662 469.483C275.779 470.233 276.936 470.924 278.126 471.553C278.53 471.768 278.941 471.972 279.35 472.166C282.719 473.791 286.314 474.894 290.014 475.439C289.98 474.973 289.949 474.516 289.919 474.069C286.436 473.526 283.052 472.471 279.877 470.939V470.939Z" fill="white"/>
<path d="M270.173 491.41C269.775 491.174 269.384 490.928 269.001 490.67C268.881 490.597 268.758 490.515 268.642 490.437C263.81 487.189 259.835 482.82 257.056 477.704C254.277 472.588 252.776 466.876 252.682 461.055C252.239 461.233 251.797 461.411 251.356 461.599C251.536 467.546 253.129 473.364 256.006 478.572C258.882 483.78 262.957 488.228 267.895 491.548C268.051 491.652 268.206 491.757 268.365 491.856C268.758 492.112 269.149 492.358 269.543 492.599C275.678 496.282 282.744 498.12 289.897 497.893C289.939 497.446 289.982 496.999 290.019 496.548C283.044 496.802 276.148 495.017 270.173 491.41Z" fill="white"/>
<path d="M260.67 507.514C260.259 507.286 259.855 507.047 259.455 506.803C259.028 506.539 258.604 506.27 258.187 505.99C251.699 501.618 246.802 495.262 244.229 487.874C241.655 480.486 241.544 472.463 243.912 465.007C243.36 465.289 242.811 465.565 242.27 465.854C240.142 473.451 240.463 481.526 243.186 488.93C245.91 496.335 250.897 502.693 257.44 507.101C257.857 507.381 258.277 507.656 258.703 507.91C259.105 508.164 259.509 508.403 259.916 508.636C268.183 513.301 277.914 514.65 287.138 512.41C287.298 511.921 287.437 511.426 287.58 510.925C278.508 513.331 268.856 512.107 260.67 507.514V507.514Z" fill="white"/>
<path d="M47.2359 184.931C42.0947 184.931 37.0688 183.406 32.794 180.55C28.5192 177.694 25.1874 173.634 23.2198 168.884C21.2523 164.134 20.7375 158.907 21.7404 153.865C22.7433 148.822 25.2189 144.191 28.8543 140.555C32.4896 136.92 37.1214 134.444 42.1638 133.441C47.2062 132.437 52.4329 132.952 57.1829 134.919C61.9329 136.887 65.9928 140.218 68.8493 144.493C71.7058 148.768 73.2306 153.793 73.2309 158.935C73.2232 165.827 70.482 172.434 65.6087 177.308C60.7354 182.181 54.128 184.923 47.2359 184.931V184.931ZM47.2359 135.372C42.5758 135.372 38.0203 136.754 34.1455 139.343C30.2707 141.932 27.2506 145.612 25.4673 149.918C23.6839 154.223 23.2173 158.961 24.1264 163.531C25.0356 168.102 27.2797 172.3 30.5749 175.596C33.8701 178.891 38.0685 181.135 42.6391 182.044C47.2098 182.953 51.9473 182.487 56.2528 180.703C60.5582 178.92 64.2381 175.9 66.8272 172.025C69.4162 168.15 70.7981 163.595 70.7981 158.935C70.7901 152.688 68.305 146.7 63.8879 142.283C59.4708 137.867 53.4823 135.382 47.2359 135.375V135.372Z" fill="#F2F2F2"/>
<path d="M330.738 185.927C324.481 185.935 318.416 183.773 313.576 179.809C308.735 175.846 305.42 170.326 304.194 164.191C302.968 158.056 303.907 151.686 306.853 146.167C309.798 140.647 314.567 136.32 320.345 133.923C326.124 131.526 332.555 131.208 338.543 133.022C344.53 134.836 349.703 138.671 353.179 143.872C356.655 149.074 358.22 155.32 357.606 161.546C356.992 167.772 354.238 173.592 349.813 178.015C344.753 183.074 337.893 185.919 330.738 185.927ZM330.736 133.937C325.797 133.941 320.971 135.409 316.866 138.156C312.762 140.902 309.564 144.804 307.676 149.367C305.788 153.931 305.295 158.951 306.259 163.795C307.224 168.638 309.603 173.087 313.095 176.579C316.587 180.071 321.036 182.45 325.88 183.414C330.723 184.378 335.744 183.885 340.308 181.997C344.871 180.109 348.772 176.91 351.518 172.806C354.264 168.701 355.732 163.874 355.736 158.936C355.73 152.307 353.093 145.953 348.406 141.266C343.719 136.579 337.364 133.943 330.736 133.937V133.937Z" fill="#CCCCCC"/>
<path d="M330.739 148.067C328.592 148.069 326.494 148.707 324.71 149.9C322.925 151.094 321.535 152.79 320.714 154.774C319.894 156.758 319.679 158.94 320.098 161.046C320.518 163.151 321.552 165.085 323.07 166.603C324.588 168.121 326.522 169.155 328.627 169.575C330.733 169.994 332.915 169.78 334.899 168.959C336.883 168.138 338.579 166.748 339.773 164.963C340.966 163.179 341.605 161.081 341.606 158.934C341.606 157.507 341.325 156.094 340.779 154.775C340.233 153.457 339.433 152.259 338.424 151.249C337.415 150.24 336.217 149.44 334.898 148.894C333.579 148.348 332.166 148.067 330.739 148.067Z" fill="#CACACA"/>
<path d="M614.241 148.071C612.094 148.073 609.996 148.711 608.212 149.904C606.427 151.098 605.037 152.794 604.216 154.778C603.395 156.762 603.181 158.944 603.6 161.05C604.02 163.155 605.054 165.089 606.572 166.607C608.09 168.125 610.024 169.159 612.129 169.579C614.235 169.998 616.417 169.784 618.401 168.963C620.385 168.142 622.081 166.752 623.275 164.967C624.468 163.183 625.106 161.085 625.108 158.938C625.108 157.511 624.827 156.098 624.281 154.779C623.735 153.461 622.935 152.263 621.926 151.253C620.916 150.244 619.718 149.444 618.4 148.898C617.081 148.352 615.668 148.071 614.241 148.071V148.071Z" fill="#CACACA"/>
<path d="M571.638 0C570.543 0.00170266 569.495 0.437566 568.721 1.21188C567.948 1.9862 567.514 3.03568 567.514 4.12988C567.514 5.22408 567.948 6.27355 568.721 7.04787C569.495 7.82218 570.543 8.25805 571.638 8.25975H655.414C656.508 8.25805 657.557 7.82218 658.33 7.04787C659.103 6.27355 659.538 5.22408 659.538 4.12988C659.538 3.03568 659.103 1.9862 658.33 1.21188C657.557 0.437566 656.508 0.00170266 655.414 0H571.638Z" fill="#DE5833"/>
<path d="M571.638 24.3318C570.542 24.3318 569.492 24.767 568.717 25.5415C567.943 26.316 567.508 27.3664 567.508 28.4617C567.508 29.557 567.943 30.6075 568.717 31.382C569.492 32.1565 570.542 32.5916 571.638 32.5916H655.414C656.508 32.5899 657.557 32.154 658.33 31.3797C659.103 30.6054 659.538 29.5559 659.538 28.4617C659.538 27.3675 659.103 26.318 658.33 25.5437C657.557 24.7694 656.508 24.3336 655.414 24.3318H571.638Z" fill="#DE5833"/>
<path d="M571.638 48.9214C570.542 48.9214 569.492 49.3566 568.717 50.1311C567.943 50.9056 567.508 51.956 567.508 53.0513C567.508 54.1466 567.943 55.1971 568.717 55.9716C569.492 56.7461 570.542 57.1812 571.638 57.1812H655.414C656.508 57.1795 657.557 56.7436 658.33 55.9693C659.103 55.195 659.538 54.1455 659.538 53.0513C659.538 51.9571 659.103 50.9076 658.33 50.1333C657.557 49.359 656.508 48.9232 655.414 48.9214H571.638Z" fill="#DE5833"/>
<path d="M146.594 300.786C147.517 299.642 148.178 298.309 148.531 296.882C148.883 295.455 148.918 293.967 148.633 292.525C148.349 291.083 147.752 289.721 146.883 288.534C146.015 287.348 144.898 286.366 143.609 285.658L149.596 250.428L132.6 257.91L129.521 290.218C128.475 292.461 128.289 295.01 128.997 297.382C129.705 299.753 131.259 301.783 133.363 303.085C135.468 304.388 137.977 304.873 140.416 304.45C142.854 304.026 145.053 302.722 146.594 300.786V300.786Z" fill="#FFB6B6"/>
<path d="M125.75 280.481L122.651 192.378L122.649 192.318L139.285 111.453C139.844 108.788 141.247 106.374 143.286 104.569C145.325 102.763 147.891 101.663 150.604 101.43C152.537 101.272 154.48 101.562 156.283 102.278C158.085 102.994 159.698 104.116 160.996 105.556C162.294 106.997 163.242 108.718 163.766 110.585C164.29 112.452 164.376 114.415 164.018 116.321L151.106 184.962L150.832 281.049L125.75 280.481Z" fill="#E4E4E4"/>
<path d="M208.047 529.757L220.306 529.756L226.139 482.468L208.044 482.469L208.047 529.757Z" fill="#FFB6B6"/>
<path d="M204.919 525.754L229.063 525.753H229.064C233.145 525.753 237.058 527.374 239.944 530.26C242.829 533.145 244.45 537.059 244.451 541.139V541.639L204.92 541.641L204.919 525.754Z" fill="#2F2E41"/>
<path d="M155.047 529.757L167.306 529.756L173.139 482.468L155.044 482.469L155.047 529.757Z" fill="#FFB6B6"/>
<path d="M151.919 525.754L176.063 525.753H176.064C180.145 525.753 184.058 527.374 186.944 530.26C189.829 533.145 191.45 537.059 191.451 541.139V541.639L151.92 541.641L151.919 525.754Z" fill="#2F2E41"/>
<path d="M222.73 199.827L227.409 209.861L241.462 340.541L227.655 514.021L203.246 514.823L207.462 354.541L177.243 289.562L175.462 517.541H154.112L133.938 288.765C133.938 288.765 126.982 225.112 152.222 199.827H222.73Z" fill="#DE5833"/>
<path d="M152.157 200.322L151.787 200.274L139.495 123.655C138.709 118.799 139.574 113.82 141.954 109.514C144.333 105.208 148.088 101.824 152.617 99.9054L165.325 94.5011L205.044 94.1466L220.811 103.554C226.865 107.164 231.73 112.465 234.808 118.806C237.886 125.146 239.041 132.248 238.132 139.237L228.895 210.422L152.157 200.322Z" fill="#E4E4E4"/>
<path d="M227.248 308.207C226.31 307.075 225.631 305.752 225.26 304.329C224.888 302.907 224.833 301.42 225.099 299.974C225.364 298.528 225.943 297.158 226.795 295.96C227.647 294.762 228.752 293.766 230.03 293.041L223.573 257.894L240.667 265.147L244.179 297.411C245.254 299.64 245.475 302.187 244.798 304.567C244.122 306.948 242.596 308.998 240.509 310.329C238.422 311.66 235.919 312.179 233.475 311.788C231.031 311.397 228.816 310.122 227.248 308.207V308.207Z" fill="#FFB6B6"/>
<path d="M208.97 201.001L208.96 200.942L214.369 118.561C214.558 115.844 215.617 113.261 217.39 111.193C219.162 109.126 221.553 107.685 224.209 107.083V107.083C226.102 106.662 228.067 106.683 229.95 107.146C231.833 107.608 233.585 108.498 235.067 109.748C236.55 110.998 237.725 112.572 238.5 114.35C239.275 116.128 239.629 118.06 239.535 119.997L236.143 189.76L249.026 284.98L224.103 287.851L208.97 201.001Z" fill="#E4E4E4"/>
<path d="M190.086 87.6136C204.572 87.6136 216.315 75.8708 216.315 61.3853C216.315 46.8997 204.572 35.1569 190.086 35.1569C175.601 35.1569 163.858 46.8997 163.858 61.3853C163.858 75.8708 175.601 87.6136 190.086 87.6136Z" fill="#FFB6B6"/>
<path d="M145.374 94.6286C148.161 92.2571 151.573 90.7578 154.606 88.7114C157.64 86.6648 160.447 83.7783 160.95 80.1536C161.555 75.8012 158.76 71.8173 156.962 67.8076C151.369 55.3342 156.268 39.1016 167.827 31.8036C179.385 24.5056 196.147 27.0623 205.004 37.4743C209.064 32.1915 218.241 32.1658 222.331 37.4258C226.421 42.6858 224.135 51.5732 218.014 54.2066C213.717 56.0556 208.482 55.0724 204.444 57.434C200.228 59.899 198.636 65.4331 199.385 70.2582C200.134 75.0833 202.751 79.384 205.314 83.5402L199.653 74.9343C202.746 81.4821 205.893 88.2273 206.364 95.4538C206.834 102.68 204.015 110.601 197.683 114.116C192.134 117.197 184.51 116.714 180.449 121.594C178.838 123.646 178.006 126.202 178.101 128.81C171.984 127.867 165.848 127.039 159.72 126.173C152.905 125.21 146.09 124.247 139.275 123.284C138.66 121.098 138.222 118.866 137.966 116.61C137.095 108.608 139.244 99.8443 145.374 94.6286Z" fill="#222222"/>
<path d="M288.134 0C287.04 0.00170266 285.991 0.437566 285.218 1.21188C284.445 1.9862 284.01 3.03568 284.01 4.12988C284.01 5.22408 284.445 6.27355 285.218 7.04787C285.991 7.82218 287.04 8.25805 288.134 8.25975H371.91C373.006 8.25975 374.056 7.82464 374.831 7.05014C375.605 6.27564 376.04 5.22519 376.04 4.12988C376.04 3.03457 375.605 1.98411 374.831 1.20961C374.056 0.435108 373.006 0 371.91 0H288.134Z" fill="#DE5833"/>
<path d="M288.134 24.3318C287.039 24.3318 285.988 24.767 285.214 25.5415C284.439 26.316 284.004 27.3664 284.004 28.4617C284.004 29.557 284.439 30.6075 285.214 31.382C285.988 32.1565 287.039 32.5916 288.134 32.5916H371.91C373.006 32.5916 374.056 32.1565 374.831 31.382C375.605 30.6075 376.04 29.557 376.04 28.4617C376.04 27.3664 375.605 26.316 374.831 25.5415C374.056 24.767 373.006 24.3318 371.91 24.3318H288.134Z" fill="#DE5833"/>
<path d="M288.134 48.9214C287.04 48.9232 285.991 49.359 285.218 50.1333C284.445 50.9076 284.01 51.9571 284.01 53.0513C284.01 54.1455 284.445 55.195 285.218 55.9693C285.991 56.7436 287.04 57.1795 288.134 57.1812H371.91C373.006 57.1812 374.056 56.7461 374.831 55.9716C375.605 55.1971 376.04 54.1466 376.04 53.0513C376.04 51.956 375.605 50.9056 374.831 50.1311C374.056 49.3566 373.006 48.9214 371.91 48.9214H288.134Z" fill="#DE5833"/>
<path d="M5.13394 0C4.03974 0.00170266 2.99095 0.437566 2.21783 1.21188C1.44472 1.9862 1.0105 3.03568 1.0105 4.12988C1.0105 5.22408 1.44472 6.27355 2.21783 7.04787C2.99095 7.82218 4.03974 8.25805 5.13394 8.25975H88.9104C90.0046 8.25805 91.0534 7.82218 91.8265 7.04787C92.5996 6.27355 93.0338 5.22408 93.0338 4.12988C93.0338 3.03568 92.5996 1.9862 91.8265 1.21188C91.0534 0.437566 90.0046 0.00170266 88.9104 0H5.13394Z" fill="#F2F2F2"/>
<path d="M5.13394 24.3318C4.03974 24.3336 2.99095 24.7694 2.21783 25.5437C1.44472 26.318 1.0105 27.3675 1.0105 28.4617C1.0105 29.5559 1.44472 30.6054 2.21783 31.3797C2.99095 32.154 4.03974 32.5899 5.13394 32.5916H88.9104C90.0057 32.5916 91.0562 32.1565 91.8307 31.382C92.6052 30.6075 93.0403 29.557 93.0403 28.4617C93.0403 27.3664 92.6052 26.316 91.8307 25.5415C91.0562 24.767 90.0057 24.3318 88.9104 24.3318H5.13394Z" fill="#F2F2F2"/>
<path d="M5.13394 48.9214C4.03974 48.9232 2.99095 49.359 2.21783 50.1333C1.44472 50.9076 1.0105 51.9571 1.0105 53.0513C1.0105 54.1455 1.44472 55.195 2.21783 55.9693C2.99095 56.7436 4.03974 57.1795 5.13394 57.1812H88.9104C90.0046 57.1795 91.0534 56.7436 91.8265 55.9693C92.5996 55.195 93.0338 54.1455 93.0338 53.0513C93.0338 51.9571 92.5996 50.9076 91.8265 50.1333C91.0534 49.359 90.0046 48.9232 88.9104 48.9214H5.13394Z" fill="#F2F2F2"/>
<path d="M572.134 0C571.04 0.00170266 569.991 0.437566 569.218 1.21188C568.445 1.9862 568.01 3.03568 568.01 4.12988C568.01 5.22408 568.445 6.27355 569.218 7.04787C569.991 7.82218 571.04 8.25805 572.134 8.25975H655.91C657.005 8.25805 658.053 7.82218 658.826 7.04787C659.6 6.27355 660.034 5.22408 660.034 4.12988C660.034 3.03568 659.6 1.9862 658.826 1.21188C658.053 0.437566 657.005 0.00170266 655.91 0H572.134Z" fill="#DE5833"/>
<path d="M572.134 24.3318C571.038 24.3318 569.988 24.767 569.214 25.5415C568.439 26.316 568.004 27.3664 568.004 28.4617C568.004 29.557 568.439 30.6075 569.214 31.382C569.988 32.1565 571.038 32.5916 572.134 32.5916H655.91C657.004 32.5899 658.053 32.154 658.826 31.3797C659.599 30.6054 660.034 29.5559 660.034 28.4617C660.034 27.3675 659.599 26.318 658.826 25.5437C658.053 24.7694 657.004 24.3336 655.91 24.3318H572.134Z" fill="#DE5833"/>
<path d="M572.134 48.9214C571.038 48.9214 569.988 49.3566 569.214 50.1311C568.439 50.9056 568.004 51.956 568.004 53.0513C568.004 54.1466 568.439 55.1971 569.214 55.9716C569.988 56.7461 571.038 57.1812 572.134 57.1812H655.91C657.004 57.1795 658.053 56.7436 658.826 55.9693C659.599 55.195 660.034 54.1455 660.034 53.0513C660.034 51.9571 659.599 50.9076 658.826 50.1333C658.053 49.359 657.004 48.9232 655.91 48.9214H572.134Z" fill="#DE5833"/>
<path d="M370.485 543.3H1.19067C0.875482 543.299 0.573504 543.174 0.350952 542.95C0.1284 542.727 0.00341797 542.425 0.00341797 542.11C0.00341797 541.794 0.1284 541.492 0.350952 541.269C0.573504 541.046 0.875482 540.92 1.19067 540.919H370.485C370.8 540.919 371.103 541.044 371.327 541.268C371.55 541.491 371.675 541.794 371.675 542.11C371.675 542.425 371.55 542.728 371.327 542.952C371.103 543.175 370.8 543.3 370.485 543.3Z" fill="#CACACA"/>
<path d="M614.243 187.931C608.508 187.931 602.902 186.23 598.134 183.044C593.366 179.858 589.65 175.33 587.455 170.032C585.261 164.734 584.686 158.904 585.805 153.279C586.924 147.655 589.686 142.488 593.741 138.433C597.795 134.378 602.962 131.617 608.586 130.498C614.211 129.379 620.041 129.954 625.339 132.148C630.637 134.343 635.165 138.059 638.351 142.827C641.537 147.595 643.238 153.201 643.238 158.936C643.229 166.623 640.172 173.993 634.736 179.429C629.3 184.865 621.93 187.922 614.243 187.931ZM614.243 131.941C608.904 131.941 603.684 133.524 599.245 136.491C594.806 139.457 591.346 143.673 589.303 148.606C587.26 153.538 586.725 158.966 587.767 164.203C588.808 169.439 591.38 174.249 595.155 178.024C598.93 181.8 603.74 184.371 608.977 185.412C614.213 186.454 619.641 185.919 624.574 183.876C629.506 181.833 633.722 178.373 636.689 173.933C639.655 169.494 641.238 164.275 641.238 158.936C641.23 151.779 638.383 144.917 633.322 139.856C628.261 134.796 621.4 131.949 614.243 131.941V131.941Z" fill="#CCCCCC"/>
</g>
<defs>
<clipPath id="clip0_10_74">
<rect width="660.04" height="543.3" fill="white"/>
</clipPath>
</defs>
</svg>
